<?xml version="1.0" encoding="utf-8"?>
<!-- Generator: Adobe Illustrator 26.3.1, SVG Export Plug-In . SVG Version: 6.00 Build 0)  -->
<svg version="1.1" id="Layer_1" xmlns="http://www.w3.org/2000/svg" xmlns:xlink="http://www.w3.org/1999/xlink" x="0px" y="0px"
	 viewBox="0 0 1920 418" style="enable-background:new 0 0 1920 418;" xml:space="preserve">
<style type="text/css">
	.st0{fill:#12274E;}
	.st1{fill:#FFFFFF;}
	.st2{fill:#939498;}
</style>
<rect class="st0" width="1920" height="418"/>
<g>
	<path class="st1" d="M179.6,197.7c2.9-1.4,6-2.6,9.2-3.4v41.4c-14-3.6-20.9-10.4-20.9-20.5c0-7.5,4-13.4,11.9-17.5H179.6z
		 M164.1,180.7c7.6-5,15.8-8.4,24.8-10v-49.3l-95.6,97.5v132.3h95.6v-21.5c-9.7-1.6-18.5-4.9-26.5-10c-14.2-8.7-21.3-21.1-21.3-37.3
		h23.1c0,9.7,4.5,16.5,13.4,20.5c3.5,1.6,7.3,2.7,11.3,3.6V258c-5.5-1.1-11-2.2-16.5-3.5c-18.5-6.8-27.7-19.9-27.7-39.3
		C144.6,201,151.1,189.5,164.1,180.7z M218.3,263.9c0,0-1-0.2-1.6-0.3v42.8c4.2-0.8,8.2-2,11.8-3.7c8.8-4.1,13.2-10.3,13.2-18.4
		C241.8,274.2,233.9,267.3,218.3,263.9z M216.7,122.9v47.7c9.1,1.6,17.5,5,25.1,10.1c12.9,8.7,19.4,21,19.4,36.9h-23.1
		c0-9.1-4-15.7-11.9-19.6c-3-1.6-6.1-2.8-9.5-3.7v47.4c3.2,0.7,6.3,1.4,9.5,2.1c2.1,0.5,4.2,0.9,6.3,1.4c5.5,1.1,10.9,3.1,15.7,6.2
		c11.2,7.4,16.9,18.3,16.9,33c0,14.9-7.1,26.8-21.4,35.4c-8.2,5-17.2,8.3-27,9.8v21.5h96.6V220.3L216.7,122.9z"/>
	<path class="st1" d="M435,313.9v9.5c0,7.3,1.6,12.8,4.7,16.4c3.2,3.6,7.5,5.4,13.1,5.4c5,0,8.9-1.3,11.7-3.9
		c2.8-2.6,4.2-5.8,4.2-9.6h7.4c0,2.3-0.5,4.6-1.4,6.9c-0.9,2.3-2.3,4.5-4.1,6.6c-1.8,2.1-4.3,3.8-7.4,5c-3.1,1.3-6.7,1.9-10.7,1.9
		c-7.7,0-13.8-2.5-18.3-7.4c-4.5-4.9-6.7-12-6.7-21.2v-9.8c0-9.1,2.3-16.3,6.8-21.3c4.5-5.1,10.6-7.6,18.3-7.6
		c3.8,0,7.3,0.6,10.4,1.9c3.1,1.3,5.5,3,7.4,5.1c1.9,2.1,3.3,4.4,4.3,6.9s1.5,5.1,1.5,7.7h-7.4c0-3.9-1.5-7.3-4.4-10.3
		c-2.9-3-6.8-4.5-11.8-4.5c-5.3,0-9.6,1.9-12.8,5.7C436.6,301.1,435,306.7,435,313.9z"/>
	<path class="st1" d="M514.4,286c3.4,0,6.5,0.5,9.2,1.6c2.7,1.1,4.8,2.5,6.4,4.3c1.6,1.8,2.8,3.8,3.6,6c0.8,2.2,1.2,4.6,1.2,7.2
		c0,4.8-1.2,8.7-3.5,11.7c-2.3,3-5.2,5.1-8.6,6.3l13.2,27.5h-8.7l-12-26H499v26h-7.6V286H514.4z M499,317.9h14.1
		c4.6,0,8.1-1.1,10.4-3.2c2.4-2.1,3.5-5.1,3.5-9.1c0-4.2-1.2-7.4-3.6-9.6c-2.4-2.2-5.7-3.3-10-3.3H499V317.9z"/>
	<path class="st1" d="M589.4,343.8v6.9h-38.4V286h38.4v6.9h-30.8v21.3h29.1v6.9h-29.1v22.8H589.4z"/>
	<path class="st1" d="M606.4,350.7h-7.8l23.3-64.7h7.4l23.2,64.7h-8.2l-6.7-19.9h-24.5L606.4,350.7z M625.5,295.4h-0.3l-10,29.3
		h20.2L625.5,295.4z"/>
	<path class="st1" d="M684.6,350.7h-7.5v-57.9h-19.8V286h47.2v6.8h-19.8V350.7z"/>
	<path class="st1" d="M723.4,350.7h-7.6V286h7.6V350.7z"/>
	<path class="st1" d="M765.6,350.7h-7.4L734.7,286h8.5l18.5,55.5h0.4l18.5-55.5h8.6L765.6,350.7z"/>
	<path class="st1" d="M838.9,343.8v6.9h-38.4V286h38.4v6.9h-30.8v21.3h29.1v6.9h-29.1v22.8H838.9z"/>
	<path class="st1" d="M884.4,350.7h-7.6V286h37.8v6.9h-30.2v22.6h27.7v6.9h-27.7V350.7z"/>
	<path class="st1" d="M935.4,350.7h-7.6V286h7.6V350.7z"/>
	<path class="st1" d="M961.3,350.7h-7.6V286h7.6l33.1,51.7h0.3V286h7.5v64.7h-7.5L961.5,299h-0.3V350.7z"/>
	<path class="st1" d="M1021.7,350.7h-7.8l23.3-64.7h7.4l23.2,64.7h-8.2l-6.7-19.9h-24.5L1021.7,350.7z M1040.8,295.4h-0.3l-10,29.3
		h20.2L1040.8,295.4z"/>
	<path class="st1" d="M1087,350.7h-7.6V286h7.6l33.1,51.7h0.3V286h7.5v64.7h-7.5l-33.2-51.7h-0.3V350.7z"/>
	<path class="st1" d="M1151.2,313.9v9.5c0,7.3,1.6,12.8,4.7,16.4c3.2,3.6,7.5,5.4,13.1,5.4c5,0,8.9-1.3,11.7-3.9
		c2.8-2.6,4.2-5.8,4.2-9.6h7.4c0,2.3-0.5,4.6-1.4,6.9c-0.9,2.3-2.3,4.5-4.1,6.6s-4.3,3.8-7.4,5c-3.1,1.3-6.7,1.9-10.7,1.9
		c-7.7,0-13.8-2.5-18.3-7.4c-4.5-4.9-6.7-12-6.7-21.2v-9.8c0-9.1,2.3-16.3,6.8-21.3c4.5-5.1,10.6-7.6,18.3-7.6
		c3.8,0,7.3,0.6,10.4,1.9c3.1,1.3,5.5,3,7.4,5.1s3.3,4.4,4.3,6.9s1.5,5.1,1.5,7.7h-7.4c0-3.9-1.5-7.3-4.4-10.3s-6.8-4.5-11.8-4.5
		c-5.3,0-9.6,1.9-12.8,5.7S1151.2,306.7,1151.2,313.9z"/>
	<path class="st1" d="M1215.3,350.7h-7.6V286h7.6V350.7z"/>
	<path class="st1" d="M1234.7,350.7h-7.8l23.3-64.7h7.4l23.2,64.7h-8.2l-6.7-19.9h-24.5L1234.7,350.7z M1253.8,295.4h-0.3l-10,29.3
		h20.2L1253.8,295.4z"/>
	<path class="st1" d="M1330.2,343.8v6.9h-37.8V286h7.6v57.8H1330.2z"/>
	<path class="st1" d="M1358.6,333.4h7.6c0.3,3.5,1.9,6.3,4.8,8.5c2.8,2.2,6.7,3.3,11.6,3.3c4.6,0,8.3-1.1,11.1-3.2
		c2.8-2.1,4.2-5,4.2-8.6c0-2.7-0.9-4.9-2.6-6.6c-1.7-1.7-4.4-3-8.1-4l-11.6-3.1c-4.4-1.1-7.9-3.1-10.7-5.8c-2.8-2.7-4.2-6.4-4.2-11
		c0-3.9,1.1-7.2,3.2-10.1c2.1-2.9,4.8-5,8.1-6.3c3.3-1.3,6.9-2,10.7-2c2.8,0,5.4,0.4,7.9,1.1c2.5,0.7,4.8,1.8,7,3.2
		c2.1,1.4,3.9,3.3,5.2,5.7c1.3,2.4,2,5.2,2.1,8.2h-7.6c-0.3-3.4-1.8-6.1-4.3-8.2c-2.5-2.1-6-3.2-10.5-3.2c-4.2,0-7.6,1-10.3,2.9
		c-2.6,1.9-4,4.6-4,8.2c0,5,3.1,8.3,9.2,9.9l11.3,3c5.4,1.5,9.6,3.6,12.4,6.3c2.9,2.7,4.3,6.4,4.3,11.2c0,6.2-2.2,10.9-6.7,14.2
		c-4.5,3.3-10.2,5-17.2,5c-4,0-7.5-0.6-10.6-1.7c-3.1-1.1-5.5-2.7-7.2-4.5c-1.7-1.9-3-3.9-3.9-5.9
		C1359.1,337.8,1358.6,335.6,1358.6,333.4z"/>
	<path class="st1" d="M1417.8,323.6v-9.7c0-9.1,2.3-16.2,7-21.4c4.6-5.2,10.9-7.8,18.6-7.8s14,2.6,18.6,7.7
		c4.6,5.2,6.9,12.3,6.9,21.4v9.7c0,9.1-2.3,16.1-7,21c-4.7,5-10.9,7.5-18.7,7.5c-7.9,0-14.1-2.5-18.6-7.5S1417.8,332.6,1417.8,323.6
		z M1425.3,313.9v9.7c0,3.6,0.5,6.8,1.4,9.6s2.2,5.1,3.9,6.8c1.6,1.7,3.5,3,5.7,3.9c2.1,0.9,4.5,1.3,7.1,1.3c2.6,0,5-0.4,7.1-1.3
		c2.2-0.9,4.1-2.2,5.8-3.9c1.7-1.7,3-4,3.9-6.8c0.9-2.8,1.3-6,1.3-9.6v-9.7c0-7.1-1.7-12.6-5-16.5c-3.4-3.9-7.7-5.8-13.1-5.8
		c-5.3,0-9.6,1.9-13,5.7C1427,301.1,1425.3,306.7,1425.3,313.9z"/>
	<path class="st1" d="M1522.5,343.8v6.9h-37.8V286h7.6v57.8H1522.5z"/>
	<path class="st1" d="M1540.6,286v42.2c0,5.1,1.5,9.2,4.5,12.3s7.1,4.6,12.2,4.6c5.1,0,9.1-1.5,12.2-4.6c3-3.1,4.6-7.2,4.6-12.3V286
		h7.5v42.2c0,7.1-2.2,12.9-6.7,17.2c-4.5,4.4-10.3,6.6-17.6,6.6c-4.8,0-9-1-12.7-3c-3.7-2-6.5-4.8-8.6-8.5c-2-3.7-3-7.8-3-12.5v-42
		H1540.6z"/>
	<path class="st1" d="M1619.6,350.7h-7.5v-57.9h-19.8V286h47.2v6.8h-19.8V350.7z"/>
	<path class="st1" d="M1658.5,350.7h-7.6V286h7.6V350.7z"/>
	<path class="st1" d="M1674.2,323.6v-9.7c0-9.1,2.3-16.2,7-21.4c4.6-5.2,10.9-7.8,18.6-7.8s14,2.6,18.6,7.7
		c4.6,5.2,6.9,12.3,6.9,21.4v9.7c0,9.1-2.3,16.1-7,21c-4.7,5-10.9,7.5-18.7,7.5c-7.9,0-14.1-2.5-18.6-7.5S1674.2,332.6,1674.2,323.6
		z M1681.7,313.9v9.7c0,3.6,0.5,6.8,1.4,9.6s2.2,5.1,3.9,6.8c1.6,1.7,3.5,3,5.7,3.9c2.1,0.9,4.5,1.3,7.1,1.3c2.6,0,5-0.4,7.1-1.3
		c2.2-0.9,4.1-2.2,5.8-3.9c1.7-1.7,3-4,3.9-6.8c0.9-2.8,1.3-6,1.3-9.6v-9.7c0-7.1-1.7-12.6-5-16.5c-3.4-3.9-7.7-5.8-13.1-5.8
		c-5.3,0-9.6,1.9-13,5.7C1683.4,301.1,1681.7,306.7,1681.7,313.9z"/>
	<path class="st1" d="M1748.8,350.7h-7.6V286h7.6l33.1,51.7h0.3V286h7.5v64.7h-7.5L1749,299h-0.3V350.7z"/>
	<path class="st1" d="M1803,333.4h7.6c0.3,3.5,1.9,6.3,4.8,8.5c2.8,2.2,6.7,3.3,11.6,3.3c4.6,0,8.3-1.1,11.1-3.2
		c2.8-2.1,4.2-5,4.2-8.6c0-2.7-0.9-4.9-2.6-6.6c-1.7-1.7-4.4-3-8.1-4l-11.6-3.1c-4.4-1.1-7.9-3.1-10.7-5.8c-2.8-2.7-4.2-6.4-4.2-11
		c0-3.9,1.1-7.2,3.2-10.1c2.1-2.9,4.8-5,8.1-6.3c3.3-1.3,6.9-2,10.7-2c2.8,0,5.4,0.4,7.9,1.1c2.5,0.7,4.8,1.8,7,3.2
		c2.1,1.4,3.9,3.3,5.2,5.7c1.3,2.4,2,5.2,2.1,8.2h-7.6c-0.3-3.4-1.8-6.1-4.3-8.2c-2.5-2.1-6-3.2-10.5-3.2c-4.2,0-7.6,1-10.3,2.9
		c-2.6,1.9-4,4.6-4,8.2c0,5,3.1,8.3,9.2,9.9l11.3,3c5.4,1.5,9.6,3.6,12.4,6.3c2.9,2.7,4.3,6.4,4.3,11.2c0,6.2-2.2,10.9-6.7,14.2
		c-4.5,3.3-10.2,5-17.2,5c-4,0-7.5-0.6-10.6-1.7c-3.1-1.1-5.5-2.7-7.2-4.5c-1.7-1.9-3-3.9-3.9-5.9
		C1803.6,337.8,1803.1,335.6,1803,333.4z"/>
	<path class="st1" d="M537.3,224.7c-13.6,8.2-29,12.3-46.2,12.3c-17.4,0-32.8-4.2-46-12.6c-16.1-9.8-24.2-24-24.2-42.4H447
		c0,11,5.1,18.7,15.3,23.2c8.4,3.7,18,5.6,28.8,5.6c11.1,0,20.8-1.9,29.1-5.6c10-4.7,15-11.6,15-20.8c0-11.6-8.9-19.4-26.6-23.2h0.2
		c-4.5-0.8-9-1.7-13.3-2.5c-4.4-0.9-8.8-1.8-13.3-2.8h0.2c-6.8-1.3-13.5-2.6-20.2-4.1c-6.2-1.3-12.2-3.6-17.5-7
		c-13.2-8.5-19.7-21.4-19.7-38.8c0-16.1,7.3-29.2,22-39.2C459.9,58.3,474.6,54,491,54c16.6,0,31.3,4.3,44.1,12.8
		c14.7,9.8,22,23.8,22,41.9H531c0-10.3-4.5-17.8-13.6-22.3c-7.6-4-16.4-6.1-26.4-6.1c-9.8,0-18.6,1.9-26.4,5.8h0.2
		c-9,4.7-13.6,11.3-13.6,19.9c0,12.1,8.9,20.1,26.6,24c4.4,1,8.8,1.9,13.2,2.8c4.4,0.9,8.9,1.8,13.4,2.8c4.4,1,8.6,1.9,12.8,2.9
		c2.8,0.7,5.7,1.3,8.7,1.8c3.2,0.6,6.4,1.5,9.3,2.9c17.4,8.1,26,21.9,26,41.3C561.5,201.5,553.4,214.9,537.3,224.7z"/>
	<path class="st1" d="M709.2,232.9l-14-38.3h-69.5l-14,38.3H584l63.4-174.6h26.2L737,232.9H709.2z M635.1,168.5h50.6L660.3,99
		L635.1,168.5z"/>
	<path class="st1" d="M766.6,232.9V58.4h26.2v174.6H766.6z"/>
	<polygon class="st1" points="856.4,232.4 874.1,232.4 874.1,155.1 950,155.1 950,139.3 874.1,139.3 874.1,74.1 956.7,74.1 
		956.7,58.4 856.4,58.4 	"/>
	<rect x="996" y="58.9" class="st1" width="17.7" height="174"/>
	<polygon class="st1" points="1172.2,205.7 1078.2,58.9 1059.8,58.9 1059.8,233 1077.5,233 1077.5,87.2 1171.5,233 1189.7,233 
		1189.7,58.9 1172.2,58.9 	"/>
	<path class="st1" d="M1287.2,58.9l-62.7,174h18l18.4-54.6h69.3l18.4,54.6h19l-62.4-174H1287.2z M1265.8,164.7l29.7-88.3l30.1,88.3
		H1265.8z"/>
	<polygon class="st1" points="1514.9,205.1 1420.9,58.9 1402.4,58.9 1402.4,233 1420.2,233 1420.2,87.6 1514.2,233 1532.3,233 
		1532.3,58.9 1514.9,58.9 	"/>
	<path class="st1" d="M1608.8,87.2c9-10.8,21.2-16.3,36.1-16.3c14,0,25.2,4.3,33.4,12.8c7.5,7.7,11.6,16.5,12.3,26.3l0.1,1.4h17.2
		l-0.1-1.6c-0.3-5.9-1.7-11.8-3.9-17.4c-2.7-6.7-6.5-12.9-11.5-18.6c-4.9-5.6-11.6-10.1-19.7-13.5c-8.2-3.4-17.5-5.1-27.8-5.1
		c-20.4,0-36.9,6.9-48.9,20.4c-12.1,13.6-18.2,32.9-18.2,57.4v26.8c0,24.8,6,44,18,57.1c11.9,13.1,28.3,19.7,48.9,19.7
		c10.7,0,20.4-1.7,28.7-5.1c8.3-3.3,14.9-7.8,19.7-13.3c4.8-5.6,8.6-11.5,11.1-17.7c2.1-5.1,3.3-10.2,3.6-15.2l0.1-1.6h-17.2
		l-0.1,1.4c-0.7,9.5-4.6,17.8-11.8,24.6c-7.9,7.4-19,11.2-33,11.2c-15.7,0-28.1-5.2-37.1-15.4c-8.9-10.2-13.4-25.7-13.4-46v-26
		C1595.3,113.6,1599.9,98,1608.8,87.2z"/>
	<polygon class="st1" points="1855.7,74.6 1855.7,58.9 1753.5,58.9 1753.5,233 1855.7,233 1855.7,217.3 1771.2,217.3 1771.2,151.8 
		1850.9,151.8 1850.9,136.1 1771.2,136.1 1771.2,74.6 	"/>
	<polygon class="st2" points="204.9,54 118.5,138.2 118.5,130.1 93.2,130.1 93.2,139 93.2,162.9 34,220.6 65.5,220.6 203.9,83.8 
		340,220.6 373.8,220.6 	"/>
</g>
</svg>
